<svg version="1.2" xmlns="http://www.w3.org/2000/svg" viewBox="0 0 1200 328" width="1200" height="328">
	<title>133-ai</title>
	<style>
		tspan { white-space:pre } 
		.s0 { fill: #3f3b3c } 
		.s1 { fill: #231f20 } 
	</style>
	<g id="Layer 1">
		<g id="&lt;Group&gt;">
			<g id="&lt;Group&gt;">
				<path id="&lt;Path&gt;" class="s0" d="m109.7 71.2c-1-0.3-2 1.5-4 3.7-1 1.1-2.4 2.2-4 3.2-1.6 1-3.5 1.7-5.5 2-2.1 0.3-4.3 0.1-6.4-0.6q-1.6-0.5-3-1.3-1.4-0.9-2.6-2c-3-2.9-4.1-7-4.1-9.9 0-6.1 3.1-12.3 8.3-15.7 5.2-3.6 11.9-4.8 18.4-4q3.1 0.4 6.1 1.4 3 0.9 5.8 2.3c3.8 1.9 7.3 4.2 10.7 6.8 6.8 5.2 13 11.4 20 17.2 3.5 2.8 7.2 5.6 11.4 8 4.1 2.3 8.6 4.2 13.4 5.3 4.8 1.1 9.9 1.5 15 0.5 2.6-0.4 5.2-1.3 7.6-2.6q1.8-0.9 3.4-2.2 1.7-1.3 3.1-3c1.4-1.6 2.5-3.5 3.1-5.6l0.2-0.8q0.1-0.3 0.2-0.8c0-0.6 0.2-1.1 0.1-1.7 0.1-1.1 0-2.2-0.2-3.2-0.9-4-3.4-6.8-5.9-8.4q-0.5-0.2-0.9-0.4-0.5-0.2-0.9-0.4-0.5-0.1-0.9-0.2-0.5-0.1-0.9-0.2c-0.5 0-1 0-1.5 0q-0.3 0.1-0.6 0.1-0.3 0.1-0.6 0.2c-0.3 0.2-0.6 0.3-0.8 0.4q-0.4 0.3-0.6 0.5-0.4 0.5-0.3 1c0.1 0.5 0.7 1 1.4 1.4 0.8 0.5 1.6 1.1 2.5 2.2 0.3 0.5 0.7 1.1 1 1.6 0.3 0.7 0.6 1.3 0.7 2.1 0.1 0.7 0.2 1.4 0.2 2.1-0.1 0.3-0.1 0.6-0.3 0.9v0.2c0 0.1-0.1 0.2-0.1 0.3-0.1 0.1-0.2 0.3-0.3 0.5-0.6 1.4-1.9 2.7-3.5 3.8-1.6 1.2-3.6 2-5.5 2.5-0.8 0.2-1.8 0.4-2.7 0.5q-1.4 0.2-2.8 0.2-2.9 0.1-5.8-0.3c-3.9-0.6-7.8-1.9-11.5-3.5-7.4-3.3-14.4-8.5-21.4-13.7-7-5.3-14.3-10.8-22.8-14.5-4.2-1.9-8.7-3.3-13.3-3.9-4.7-0.6-9.5-0.4-14.2 0.8-1.9 0.5-4.6 1.4-7.5 3.1q-0.5 0.3-1.1 0.7-0.5 0.4-1.1 0.7c-0.7 0.6-1.5 1.2-2.1 1.9-0.8 0.7-1.4 1.4-2.1 2.2-0.6 0.9-1.2 1.7-1.7 2.6-1.1 1.9-2.1 3.9-2.7 6.1-0.5 2.3-0.8 4.7-0.7 7.1 0.2 2.4 0.8 4.9 2 7.2q0.4 0.8 0.9 1.6c0.4 0.6 0.7 1.1 1.1 1.6 0.8 1 1.7 1.8 2.7 2.6 3.8 3.2 8.7 4.6 13.2 4.3 2.2-0.2 4.3-0.8 6.1-1.6 1.8-0.9 3.4-2 4.6-3.1 1.2-1.2 2.1-2.4 2.8-3.5 0.7-1.2 1.1-2.3 1.3-3.2 0.5-1.8 0.2-2.9-0.4-3.1z"/>
			</g>
			<g id="&lt;Group&gt;">
				<path id="&lt;Path&gt;" class="s0" d="m203.7 84.5q-0.4 0.5 0.2 1.3c0.4 0.6 1.1 1.3 2.1 2 2 1.3 5.2 2.5 8.8 2.7 1.8 0.1 3.6 0 5.5-0.2 1.8-0.3 3.6-0.7 5.2-1.2 1.7-0.5 3.2-1.2 4.6-1.8 1.3-0.7 2.5-1.3 3.5-1.9 8.1-4.7 14.4-11 22.1-15.6 4.8-2.9 10-5.2 15.4-5.7 1.3-0.2 2.7-0.2 4-0.1q1.9 0.1 3.8 0.6 1.9 0.5 3.6 1.3 1.7 0.9 3.1 2.1c1.9 1.5 3.2 3.5 3.9 5.6q0.4 1.4 0.2 3c-0.1 1.1-0.4 2.1-0.8 3.1-0.8 2-2.4 3.6-4 4.3-0.8 0.4-1.6 0.5-2.4 0.4-0.8 0-1.7-0.2-2.4-0.8-1.2-0.7-2.2-1.8-2.9-3.1-0.7-1.2-1.2-2.5-1.4-3.6-0.5-2.2-0.4-3.7-1.2-4.2-0.3-0.3-0.8-0.2-1.5 0.3-0.7 0.5-1.4 1.5-1.9 3.1-0.3 1.4-0.5 3.1-0.1 5 0.3 1.8 1.1 3.7 2.4 5.5 1.3 1.8 3.1 3.4 5.5 4.3 0.6 0.2 1.2 0.4 1.8 0.5 0.6 0.1 1.3 0.2 1.9 0.2 0.6 0 1.2 0 1.8-0.1 0.6-0.1 1.2-0.2 1.8-0.4 2-0.5 3.8-1.7 5.2-3 1.4-1.3 2.5-2.9 3.3-4.5q1.2-2.5 1.6-5.3c0.2-1.8 0-3.7-0.5-5.6-0.1-0.4-0.2-0.9-0.4-1.3l-0.5-1.2c-0.5-0.8-0.9-1.6-1.4-2.3-1.1-1.4-2.3-2.7-3.6-3.7-2.7-2.1-5.8-3.4-8.9-4.1q-2.4-0.5-4.8-0.5c-1.6 0-3.1 0.1-4.7 0.4-3 0.5-6 1.4-8.7 2.7-5.6 2.4-10.5 5.9-15.3 9.5-2.1 1.5-5.6 4.1-9.9 6.8-4.2 2.7-9.3 5.4-14.4 6.5-2.6 0.6-5.1 0.9-7.4 0.9-2.3 0-4.4-0.3-6.1-0.7-1.7-0.4-3.1-0.9-4.1-1.2-1-0.3-1.8-0.3-2 0z"/>
			</g>
			<g id="&lt;Group&gt;">
				<path id="&lt;Path&gt;" class="s0" d="m101.9 37.3c-0.1 0.4-0.2 0.8-0.7 1.2-0.4 0.3-1.1 0.7-2.1 1-1.1 0.3-2.6 0.7-4.6 1.2-2 0.5-4.5 1.2-7.5 2.4-3.1 1.4-6.4 3.2-9.3 5.6-2.9 2.4-5.4 5.5-7.3 8.6-1.8 3-2.9 6.1-3.5 8.3-0.3 1.1-0.5 2-0.6 2.7q-0.2 0.9-0.2 0.9 0 0-0.2-1-0.1-0.9-0.1-2.8c-0.1-2.3 0.1-5.8 1.3-9.6 1.2-3.8 3.2-7.9 6.3-11.4 3-3.5 6.9-6.3 10.7-7.9 3.8-1.7 7-2.2 9.5-2.3 2.5-0.1 4.3 0.2 5.6 0.6 1.2 0.4 1.9 0.9 2.3 1.3 0.3 0.4 0.4 0.9 0.4 1.2z"/>
			</g>
			<g id="&lt;Group&gt;">
				<path id="&lt;Path&gt;" class="s0" d="m75.8 29.2c0.4 0.6 0.6 1.6 0 2.8-0.6 1.3-2 2.9-4.5 5.8-1.2 1.4-2.6 3-3.9 4.8-1.3 1.8-2.5 3.7-3.4 5.5-1 1.9-1.6 3.6-2.1 4.9-0.4 1.3-0.6 2.1-0.6 2.1q0 0-0.2-0.6c0-0.3-0.2-0.9-0.3-1.6-0.2-1.4-0.5-3.4-0.4-5.7 0.2-2.3 0.6-4.9 1.6-7.4 0.9-2.5 2.2-4.9 3.7-6.7 3.2-3.7 5.9-4.8 7.4-5 1.6-0.2 2.3 0.5 2.7 1.1z"/>
			</g>
			<g id="&lt;Group&gt;">
				<path id="&lt;Path&gt;" class="s0" d="m234.9 55.6c0.4-0.1 0.8-0.1 1.3 0.2 0.4 0.2 1 0.7 1.6 1.8 0.5 1 1 2.6 1.2 4.8 0.2 2.2 0.1 5.2-1 8.8-1.1 3.5-3.3 7.2-6.4 10.1-3 2.9-6.6 4.8-10 5.9-3.4 1-6.4 1.2-8.5 1.1q-1.6-0.1-2.5-0.2-0.9-0.2-0.9-0.2 0 0 0.9-0.1c0.6-0.1 1.4-0.3 2.3-0.6 2-0.6 4.6-1.6 7.2-3.3 2.6-1.7 5.1-4 7-6.7 1.9-2.6 3.1-5.5 4-8.2 0.8-2.7 1.1-4.9 1.4-6.7 0.2-1.7 0.4-3 0.6-3.9 0.2-1 0.5-1.6 0.8-2.1 0.3-0.4 0.7-0.6 1-0.7z"/>
			</g>
			<g id="&lt;Group&gt;">
				<path id="&lt;Path&gt;" class="s0" d="m176.8 97.2q0 0-0.6 0.1-0.5 0.2-1.5 0.4c-1.4 0.3-3.5 0.4-6.1-0.2-2.6-0.5-5.6-1.7-8.4-3.8-2.8-2.1-5.4-4.9-7.5-8.1-2.1-3.2-3.6-6.4-4.9-9.3-1.1-2.8-2.2-5.4-3.2-7.6-0.9-2.1-1.7-3.8-2.3-5q-0.5-0.9-0.8-1.4-0.2-0.5-0.2-0.5 0 0 0.4 0.3 0.5 0.2 1.4 0.8c1.2 0.8 2.8 2 4.5 3.8 1.8 1.7 3.7 4 5.6 6.6 1.8 2.6 3.7 5.4 5.5 8.3 1.9 2.8 3.7 5.4 5.6 7.5 1.8 2.1 3.8 3.8 5.6 5.1 1.9 1.2 3.6 1.9 4.9 2.4q0.9 0.3 1.4 0.4 0.6 0.2 0.6 0.2z"/>
			</g>
			<g id="&lt;Group&gt;">
				<path id="&lt;Path&gt;" class="s0" d="m147 85.8c0 0-0.5-0.3-1.2-0.7-0.7-0.5-1.7-1.2-2.9-2.2-2.3-2-5.1-5.1-7.1-9.2-1.9-4-2.5-8.2-2.6-11.2 0-1.5 0.1-2.8 0.2-3.7 0.1-0.8 0.2-1.3 0.2-1.3 0 0 0.3 0.4 0.9 1 0.5 0.7 1.3 1.6 2.2 2.8 1.7 2.4 3.9 5.5 5.7 9.3 1.8 3.8 2.9 7.5 3.6 10.4 0.3 1.4 0.6 2.6 0.8 3.4 0.1 0.9 0.2 1.4 0.2 1.4z"/>
			</g>
			<g id="&lt;Group&gt;">
				<path id="&lt;Path&gt;" class="s0" d="m209.2 94.3c0 0-0.7 0.3-2 0.9q-0.5 0.2-1.1 0.4-0.6 0.2-1.4 0.4c-0.9 0.3-2 0.7-3.3 0.9q-0.9 0.2-2 0.3c-0.7 0.2-1.4 0.2-2.1 0.3-1.6 0.2-3.2 0.2-4.9 0.1-3.4-0.1-7.2-0.7-10.9-1.9-3.8-1.2-7.2-3-10-4.9-1.4-1-2.7-2-3.8-3-0.5-0.5-1.1-1-1.6-1.5q-0.7-0.8-1.4-1.5c-0.8-0.9-1.5-1.8-2.1-2.6q-0.5-0.6-0.9-1.2-0.3-0.5-0.6-1c-0.8-1.2-1.1-1.9-1.1-1.9 0 0 0.7 0.4 1.9 1.1q0.4 0.3 1 0.6 0.5 0.3 1.2 0.6c0.8 0.5 1.8 1 2.9 1.5q0.8 0.5 1.6 0.9c0.6 0.3 1.2 0.5 1.9 0.8 1.2 0.6 2.6 1.2 4 1.8 2.8 1.1 5.9 2.3 9.2 3.4 3.4 1.1 6.6 2 9.5 2.8 1.5 0.3 2.9 0.7 4.3 0.9 0.7 0.2 1.3 0.3 2 0.4q0.9 0.2 1.8 0.3c1.2 0.3 2.3 0.4 3.3 0.5q0.7 0.1 1.3 0.2 0.6 0.1 1.1 0.1c1.4 0.2 2.2 0.3 2.2 0.3z"/>
			</g>
			<g id="&lt;Group&gt;">
				<path id="&lt;Path&gt;" class="s0" d="m106.2 62.3q0 0 0.3 0.9 0.1 0.4 0.2 1.1 0 0.3 0.1 0.7 0 0.4 0 0.8c0 2.3-0.8 5.5-3.3 8.4-1.3 1.4-2.9 2.8-5.2 3.6-1.1 0.4-2.5 0.7-3.7 0.8-1.3 0.1-2.6 0-3.8-0.3-2.6-0.6-4.9-1.9-6.9-3.7-1.9-1.7-3.5-4.1-4.3-7-0.8-2.7-0.8-5.5-0.2-7.9 0.5-2.5 1.5-4.6 2.8-6.5 1.3-1.8 2.9-3.3 4.4-4.4 1.6-1.1 3.1-1.8 4.6-2.4 2.9-1 5.3-1.2 6.9-1.3q1.3 0 1.9 0.1 0.7 0 0.7 0 0 0-0.7 0.1-0.6 0-1.8 0.2c-1.6 0.3-3.9 0.8-6.5 2.1-1.3 0.6-2.7 1.5-4.1 2.6-1.3 1.1-2.6 2.5-3.7 4.2-1 1.7-1.8 3.6-2.2 5.7-0.4 2.2-0.4 4.5 0.2 6.8 0.7 2.4 2 4.5 3.7 6 1.6 1.6 3.5 2.8 5.7 3.4 2.1 0.6 4.4 0.6 6.4-0.1 2.1-0.6 3.7-1.7 4.9-2.9 2.5-2.4 3.6-5.3 3.8-7.5q0-0.4 0.1-0.8-0.1-0.4-0.1-0.7 0-0.7-0.1-1.1-0.1-0.9-0.1-0.9z"/>
				<path id="&lt;Path&gt;" class="s0" d="m101.2 66.6q0 0-0.1 0.4 0 0.4-0.3 1.2c-0.3 1-1.1 2.5-2.8 3.7-0.9 0.6-2 1.1-3.2 1.3-1.3 0.2-2.6 0.1-4-0.4-2.7-1-5.2-3.4-6.2-6.6q-0.3-1.2-0.4-2.5 0-1.2 0.2-2.3c0.3-1.6 0.8-3 1.5-4.2 1.5-2.4 3.5-4 5.4-4.9 1.8-0.9 3.4-1.3 4.5-1.5 1.2-0.1 1.8-0.1 1.8-0.1 0 0-0.6 0.1-1.7 0.5-1 0.4-2.5 1-4 2.1-1.5 1.1-3.1 2.8-4.1 4.9-1 2.2-1.5 4.8-0.8 7.3 0.7 2.4 2.6 4.4 4.6 5.3 1 0.5 2.1 0.7 3.1 0.7 0.9 0 1.8-0.2 2.6-0.6 1.6-0.8 2.6-2 3.2-2.9q0.4-0.6 0.5-1 0.2-0.4 0.2-0.4z"/>
				<path id="&lt;Path&gt;" class="s0" d="m95.5 67.3c0-0.1-0.1 0.1-0.3 0.3q-0.2 0.2-0.4 0.3c-0.1 0.1-0.2 0.1-0.3 0.2-0.1 0-0.2 0-0.4 0.1-0.6 0.1-1.5-0.1-2.4-0.6-1-0.6-1.9-1.7-2.2-2.8-0.4-1.3-0.2-2.7 0.3-3.9 0.4-1.2 1.2-2.2 1.9-2.8 0.7-0.6 1.5-1 2-1.3q0.4-0.1 0.6-0.2 0.2-0.1 0.2-0.1 0 0-0.2 0.2-0.2 0.1-0.5 0.4c-0.4 0.3-1 0.9-1.5 1.6-0.4 0.7-1 1.6-1.2 2.7-0.3 1-0.3 2.1 0 2.9 0.2 0.8 0.7 1.6 1.4 2.1 0.6 0.6 1.2 0.8 1.6 0.9 0.1 0.1 0.2 0.1 0.3 0.1 0.1 0 0.1 0 0.2 0q0.2 0 0.5 0c0.2-0.1 0.4-0.2 0.4-0.1z"/>
			</g>
			<g id="&lt;Group&gt;">
				<path id="&lt;Path&gt;" class="s0" d="m280.7 44.8c0 0.8-0.4 1.7-2.1 2.6-1.7 0.9-4.8 1.7-10.2 3.6-2.7 0.9-5.7 2.1-8.6 3.6-2.9 1.4-5.8 3.1-8.3 4.8-2.4 1.8-4.4 3.6-5.8 4.9-1.4 1.4-2.2 2.2-2.2 2.2q0 0 0.3-0.7c0.2-0.5 0.5-1.3 1-2.2 0.9-1.7 2.2-4.2 4.2-6.8 2-2.5 4.6-5.2 7.5-7.4 3-2.3 6.3-4.1 9.4-5.3 1.6-0.5 3-1 4.3-1.2 1.3-0.3 2.4-0.4 3.4-0.5 1-0.1 1.9-0.1 2.7 0 0.7 0 1.3 0.1 1.9 0.3 2 0.5 2.4 1.4 2.5 2.1z"/>
			</g>
			<g id="&lt;Group&gt;">
				<path id="&lt;Path&gt;" class="s0" d="m306.5 59.8c-0.3 0.7-1.1 1.3-3 1.1-1.9-0.1-4.9-1.1-10.3-2.5-2.7-0.7-5.7-1.5-8.9-2-3.1-0.6-6.3-0.9-9.2-1-3-0.2-5.6 0-7.5 0.1-1.8 0.2-3 0.4-3 0.4q0-0.1 0.7-0.4c0.5-0.3 1.2-0.6 2-1.1 1.8-0.8 4.3-1.8 7.3-2.6 3-0.9 6.6-1.4 10.1-1.5 3.6-0.2 7.2 0.2 10.3 1 6.2 1.7 9.2 3.9 10.6 5.4 1.4 1.5 1.3 2.5 0.9 3.1z"/>
			</g>
			<g id="&lt;Group&gt;">
				<path id="&lt;Path&gt;" class="s0" d="m221 46.8c0.3-0.1 0.7 0 1.3 0.7q0.3 0.2 0.5 0.6 0.2 0.4 0.5 1 0.4 1.1 0.6 3c0.3 2.5-0.1 6.2-2.6 10.5-1.2 2.2-2.9 4.4-5.4 6.5-1.3 1-2.7 2-4.3 2.9q-2.4 1.2-5.3 2c-3.8 1.1-8 1.5-12.1 1.3-4.2-0.2-8.3-0.9-12.3-2-7.9-2.1-15.4-5.6-21.6-9.3-3.1-1.9-5.8-3.9-8.2-5.8-1.2-0.9-2.3-1.8-3.3-2.7-1-0.9-1.8-1.7-2.6-2.5-0.9-0.7-1.5-1.5-2.2-2.1q-0.9-0.9-1.5-1.6c-0.8-0.9-1.2-1.4-1.2-1.4 0 0 0.5 0.4 1.4 1.1q0.7 0.6 1.8 1.4c0.7 0.5 1.5 1.1 2.4 1.7 0.9 0.7 1.9 1.4 3 2.1 1 0.7 2.2 1.4 3.5 2.1 2.6 1.5 5.4 3 8.6 4.5 6.3 2.8 13.7 5.2 21.3 6.5 3.7 0.7 7.5 1 11.1 1.1 3.5-0.1 6.9-0.5 9.9-1.3q2.2-0.7 4-1.6c1.2-0.6 2.2-1.2 3.2-1.9 1.8-1.5 3.3-3 4.3-4.5 2.2-3 2.9-5.5 3.4-7.3 0.2-0.9 0.4-1.7 0.5-2.3q0.1-0.5 0.2-0.8 0.1-0.4 0.1-0.7c0.3-0.8 0.6-1.1 1-1.2z"/>
			</g>
			<g id="&lt;Group&gt;">
				<g id="&lt;Group&gt;">
					<path id="&lt;Path&gt;" class="s0" d="m71.2 111.5c-0.3-1 1.5-2 3.7-4 1.1-1 2.2-2.4 3.2-4 1-1.6 1.7-3.5 2-5.5 0.3-2.1 0.1-4.3-0.6-6.4q-0.5-1.6-1.3-3-0.9-1.4-2-2.6c-2.9-3-7-4.1-9.9-4.1-6.1 0-12.3 3.1-15.7 8.3-3.6 5.2-4.8 11.9-4 18.5q0.4 3 1.4 6 0.9 3 2.3 5.8c1.9 3.8 4.2 7.3 6.8 10.7 5.2 6.8 11.4 13 17.2 20 2.8 3.5 5.6 7.2 8 11.4 2.3 4.1 4.2 8.6 5.3 13.4 1.1 4.8 1.5 9.9 0.5 15-0.4 2.6-1.3 5.2-2.6 7.6q-0.9 1.8-2.2 3.5-1.3 1.6-3 3c-1.6 1.4-3.5 2.5-5.6 3.1l-0.8 0.2q-0.3 0.1-0.8 0.2c-0.6 0-1.1 0.2-1.7 0.2-1.1 0-2.2-0.1-3.2-0.3-4-0.9-6.8-3.4-8.4-5.9q-0.2-0.5-0.4-0.9-0.2-0.5-0.4-0.9-0.1-0.5-0.2-0.9-0.1-0.5-0.2-0.9c0-0.5 0-1 0-1.5q0.1-0.3 0.1-0.6 0.1-0.3 0.2-0.6c0.2-0.3 0.3-0.6 0.4-0.8q0.3-0.4 0.5-0.6 0.5-0.4 1-0.3c0.5 0.1 1 0.7 1.4 1.4 0.5 0.8 1.1 1.6 2.2 2.5 0.5 0.3 1.1 0.7 1.6 1 0.7 0.3 1.3 0.6 2.1 0.7 0.7 0.2 1.4 0.2 2.1 0.2 0.3-0.1 0.6-0.1 0.9-0.2l0.2-0.1c0.1 0 0.2-0.1 0.3-0.1 0.1-0.1 0.3-0.1 0.5-0.3 1.4-0.6 2.7-1.9 3.8-3.5 1.2-1.6 2-3.6 2.5-5.5 0.2-0.8 0.4-1.8 0.5-2.7q0.2-1.4 0.2-2.8 0.1-2.9-0.3-5.8c-0.6-3.9-1.9-7.8-3.5-11.5-3.3-7.4-8.5-14.4-13.7-21.4-5.3-7-10.8-14.3-14.5-22.8-1.9-4.2-3.3-8.7-3.9-13.3-0.6-4.7-0.4-9.5 0.8-14.2 0.5-1.9 1.4-4.6 3.1-7.5q0.3-0.5 0.7-1.1 0.4-0.5 0.7-1.1c0.6-0.7 1.2-1.5 1.9-2.1 0.7-0.8 1.4-1.4 2.2-2.1 0.9-0.6 1.7-1.2 2.6-1.7 1.9-1.1 3.9-2.1 6.1-2.6 2.3-0.6 4.7-0.9 7.1-0.8 2.4 0.2 4.9 0.8 7.2 2q0.8 0.4 1.6 0.9c0.6 0.4 1.1 0.7 1.6 1.1 1 0.8 1.8 1.7 2.6 2.7 3.2 3.8 4.6 8.7 4.3 13.2-0.2 2.2-0.8 4.3-1.6 6.1-0.9 1.8-2 3.4-3.1 4.6-1.2 1.2-2.4 2.1-3.5 2.8-1.2 0.7-2.3 1.1-3.2 1.3-1.8 0.5-2.9 0.2-3.1-0.4z"/>
				</g>
				<g id="&lt;Group&gt;">
					<path id="&lt;Path&gt;" class="s0" d="m84.5 205.5q0.5-0.4 1.3 0.2c0.6 0.4 1.3 1.2 2 2.1 1.3 2 2.5 5.2 2.7 8.8 0.1 1.8 0 3.6-0.2 5.5-0.3 1.8-0.7 3.6-1.2 5.2-0.5 1.7-1.2 3.2-1.8 4.6-0.7 1.4-1.3 2.5-1.9 3.5-4.7 8.1-11 14.4-15.6 22.1-2.9 4.8-5.2 10-5.7 15.4-0.2 1.3-0.2 2.7-0.1 4q0.1 1.9 0.6 3.8 0.5 1.9 1.3 3.6 0.9 1.7 2.1 3.1c1.5 1.9 3.5 3.2 5.6 3.9q1.4 0.4 3 0.2c1.1-0.1 2.1-0.4 3.1-0.8 2-0.8 3.6-2.4 4.3-4 0.4-0.8 0.5-1.6 0.4-2.4 0-0.8-0.2-1.6-0.8-2.4-0.7-1.2-1.8-2.2-3.1-2.9-1.2-0.7-2.5-1.1-3.6-1.4-2.2-0.5-3.7-0.4-4.2-1.2-0.3-0.3-0.2-0.8 0.3-1.5 0.5-0.7 1.5-1.4 3.1-1.9 1.4-0.3 3.1-0.5 5-0.1 1.8 0.3 3.7 1.1 5.5 2.4 1.8 1.3 3.4 3.1 4.3 5.5 0.2 0.6 0.4 1.2 0.5 1.8 0.1 0.6 0.2 1.3 0.2 1.9 0 0.6 0 1.2-0.1 1.8-0.1 0.6-0.2 1.2-0.4 1.8-0.5 2-1.7 3.8-3 5.2-1.3 1.4-2.9 2.5-4.5 3.3q-2.5 1.2-5.3 1.6c-1.8 0.2-3.7 0-5.6-0.5-0.4-0.1-0.9-0.2-1.3-0.4l-1.2-0.5c-0.8-0.5-1.6-0.9-2.3-1.4-1.4-1.1-2.7-2.3-3.7-3.6-2.1-2.7-3.4-5.8-4.1-8.9q-0.5-2.4-0.5-4.8c0-1.6 0.1-3.1 0.4-4.7 0.5-3 1.4-6 2.7-8.7 2.4-5.6 5.9-10.5 9.5-15.3 1.5-2.1 4.1-5.6 6.8-9.9 2.7-4.2 5.4-9.3 6.5-14.4 0.6-2.5 0.9-5.1 0.9-7.4 0-2.3-0.3-4.4-0.7-6.1-0.4-1.7-0.9-3.1-1.2-4.1-0.3-1-0.3-1.8 0-2z"/>
				</g>
				<g id="&lt;Group&gt;">
					<path id="&lt;Path&gt;" class="s0" d="m37.3 103.7c0.4-0.1 0.8-0.2 1.2-0.7 0.3-0.4 0.7-1.1 1-2.1 0.3-1.1 0.7-2.6 1.2-4.6 0.5-2 1.2-4.5 2.4-7.5 1.4-3.1 3.2-6.4 5.6-9.3 2.4-2.9 5.5-5.4 8.6-7.2 3-1.9 6.1-3 8.3-3.6 1.1-0.3 2-0.5 2.7-0.6q0.9-0.2 0.9-0.2 0 0-1-0.1-0.9-0.2-2.8-0.2c-2.3-0.1-5.8 0.2-9.6 1.3-3.8 1.2-7.9 3.2-11.4 6.3-3.5 3-6.3 6.9-7.9 10.7-1.7 3.8-2.2 7-2.3 9.5-0.1 2.5 0.2 4.3 0.6 5.6 0.4 1.2 0.9 1.9 1.3 2.3 0.4 0.3 0.9 0.4 1.2 0.4z"/>
				</g>
				<g id="&lt;Group&gt;">
					<path id="&lt;Path&gt;" class="s0" d="m29.2 77.6c0.6 0.4 1.6 0.6 2.8 0 1.3-0.6 2.9-2 5.8-4.5 1.4-1.2 3-2.6 4.8-3.9 1.8-1.3 3.7-2.5 5.5-3.4 1.9-1 3.6-1.6 4.9-2.1 1.3-0.4 2.1-0.6 2.1-0.6q0 0-0.6-0.1c-0.3-0.1-0.9-0.3-1.6-0.4-1.4-0.2-3.4-0.5-5.7-0.4-2.3 0.2-4.9 0.6-7.4 1.6-2.5 0.9-4.9 2.2-6.7 3.8-3.7 3.1-4.8 5.8-5 7.3-0.2 1.6 0.5 2.3 1.1 2.7z"/>
				</g>
				<g id="&lt;Group&gt;">
					<path id="&lt;Path&gt;" class="s0" d="m55.6 236.7c-0.1 0.4-0.1 0.8 0.2 1.3 0.2 0.5 0.7 1 1.8 1.6 1 0.5 2.6 1 4.8 1.2 2.2 0.2 5.2 0.1 8.8-1 3.5-1.1 7.2-3.3 10.1-6.3 2.9-3.1 4.8-6.7 5.9-10.1 1-3.4 1.2-6.4 1.1-8.5q-0.1-1.6-0.2-2.5-0.2-0.9-0.2-0.9 0 0-0.1 0.9c-0.1 0.6-0.3 1.4-0.6 2.3-0.6 2-1.6 4.6-3.3 7.2-1.7 2.6-4 5.1-6.7 7-2.6 1.9-5.5 3.1-8.2 4-2.7 0.8-4.9 1.1-6.7 1.4-1.7 0.2-3 0.4-3.9 0.6-1 0.2-1.6 0.5-2.1 0.8-0.4 0.3-0.6 0.7-0.7 1z"/>
				</g>
				<g id="&lt;Group&gt;">
					<path id="&lt;Path&gt;" class="s0" d="m97.2 178.6q0 0 0.1-0.6 0.2-0.5 0.4-1.5c0.3-1.4 0.4-3.5-0.2-6.1-0.5-2.6-1.7-5.6-3.8-8.4-2.1-2.8-4.9-5.4-8.1-7.5-3.2-2.1-6.4-3.6-9.3-4.9-2.8-1.1-5.4-2.2-7.6-3.1-2.1-1-3.8-1.8-5-2.4q-0.9-0.5-1.4-0.8-0.5-0.2-0.5-0.2 0 0 0.3 0.4 0.2 0.5 0.8 1.4c0.8 1.2 2 2.8 3.8 4.5 1.7 1.8 4 3.7 6.6 5.6 2.6 1.8 5.4 3.7 8.3 5.5 2.8 1.9 5.4 3.7 7.5 5.6 2.1 1.8 3.8 3.8 5.1 5.6 1.2 1.9 1.9 3.6 2.4 4.9q0.3 0.9 0.4 1.4 0.2 0.6 0.2 0.6z"/>
				</g>
				<g id="&lt;Group&gt;">
					<path id="&lt;Path&gt;" class="s0" d="m85.8 148.8c0 0-0.3-0.5-0.7-1.2-0.5-0.7-1.2-1.7-2.2-2.9-2-2.3-5.1-5.1-9.2-7.1-4-1.9-8.2-2.5-11.2-2.6-1.5 0-2.8 0.1-3.7 0.2-0.8 0.1-1.3 0.2-1.3 0.2 0 0 0.4 0.3 1 0.9 0.7 0.5 1.6 1.3 2.8 2.2 2.4 1.7 5.5 3.9 9.3 5.7 3.8 1.8 7.5 2.9 10.4 3.6 1.4 0.4 2.6 0.6 3.4 0.8 0.9 0.1 1.4 0.2 1.4 0.2z"/>
				</g>
				<g id="&lt;Group&gt;">
					<path id="&lt;Path&gt;" class="s0" d="m94.3 211c0 0 0.3-0.7 0.9-2q0.2-0.5 0.4-1.1 0.2-0.6 0.4-1.3c0.3-1 0.7-2.1 0.9-3.4q0.2-0.9 0.3-2c0.2-0.7 0.2-1.4 0.3-2.1 0.2-1.6 0.2-3.2 0.1-4.9-0.1-3.4-0.7-7.2-1.9-10.9-1.2-3.8-3-7.1-4.9-10-1-1.4-2-2.7-3-3.8-0.5-0.5-1-1.1-1.5-1.6q-0.8-0.7-1.5-1.4c-0.9-0.8-1.8-1.5-2.6-2.1q-0.6-0.5-1.2-0.9-0.5-0.3-1-0.6c-1.2-0.7-1.9-1.1-1.9-1.1 0 0 0.4 0.7 1.1 1.9q0.3 0.4 0.6 1 0.3 0.5 0.6 1.2c0.5 0.8 1 1.8 1.5 2.9q0.5 0.8 0.9 1.6c0.3 0.6 0.5 1.2 0.8 1.9 0.6 1.2 1.2 2.6 1.8 4 1.1 2.8 2.3 5.9 3.4 9.2 1.1 3.4 2 6.6 2.8 9.5 0.3 1.5 0.7 2.9 0.9 4.3 0.2 0.7 0.3 1.3 0.4 2q0.2 0.9 0.3 1.8c0.3 1.2 0.4 2.3 0.5 3.3q0.1 0.7 0.2 1.3 0.1 0.6 0.1 1.1c0.2 1.4 0.3 2.2 0.3 2.2z"/>
				</g>
				<g id="&lt;Group&gt;">
					<path id="&lt;Path&gt;" class="s0" d="m62.3 108q0 0 0.9 0.3 0.4 0.1 1.1 0.2 0.3 0 0.7 0.1 0.4 0 0.8 0c2.3 0 5.5-0.8 8.4-3.3 1.4-1.3 2.8-2.9 3.6-5.2 0.4-1.1 0.7-2.5 0.8-3.7 0.1-1.3 0-2.6-0.3-3.8-0.6-2.6-1.9-4.9-3.7-6.9-1.7-1.9-4.1-3.5-7-4.3-2.7-0.8-5.5-0.8-7.9-0.2-2.5 0.5-4.6 1.5-6.5 2.8-1.8 1.3-3.3 2.9-4.4 4.4-1.1 1.6-1.8 3.1-2.4 4.6-1 2.9-1.2 5.3-1.3 6.9q0 1.3 0.1 1.9 0 0.7 0 0.7 0 0 0.1-0.7 0-0.6 0.2-1.8c0.3-1.6 0.8-3.9 2.1-6.5 0.6-1.3 1.5-2.7 2.6-4.1 1.1-1.3 2.5-2.6 4.2-3.7 1.7-1 3.6-1.8 5.7-2.2 2.2-0.4 4.5-0.4 6.8 0.2 2.4 0.7 4.5 2 6 3.7 1.6 1.6 2.8 3.5 3.4 5.7 0.6 2.1 0.6 4.4-0.1 6.4-0.6 2.1-1.7 3.7-2.9 4.9-2.4 2.5-5.3 3.6-7.5 3.8q-0.4 0-0.8 0.1-0.4 0-0.7-0.1-0.7 0-1.1 0-0.9-0.2-0.9-0.2z"/>
					<path id="&lt;Path&gt;" class="s0" d="m66.6 103q0 0 0.4-0.1 0.4 0 1.2-0.3c1-0.3 2.5-1.1 3.7-2.8 0.6-0.9 1.1-2 1.3-3.2 0.2-1.2 0.1-2.6-0.4-4-1-2.7-3.4-5.2-6.6-6.2q-1.2-0.3-2.5-0.4-1.2 0-2.3 0.2c-1.6 0.3-3 0.8-4.2 1.5-2.4 1.5-4 3.5-4.9 5.4-0.9 1.8-1.3 3.4-1.5 4.5-0.1 1.2-0.1 1.8-0.1 1.8 0 0 0.1-0.6 0.5-1.7 0.4-1 1-2.5 2.1-4 1.1-1.5 2.8-3.1 4.9-4.1 2.2-1 4.8-1.5 7.3-0.8 2.4 0.7 4.4 2.6 5.3 4.6 0.5 1 0.7 2.1 0.7 3.1 0 0.9-0.2 1.8-0.6 2.6-0.8 1.6-2 2.6-2.9 3.2q-0.6 0.4-1 0.5-0.4 0.2-0.4 0.2z"/>
					<path id="&lt;Path&gt;" class="s0" d="m67.3 97.3c-0.1 0 0.1-0.1 0.3-0.3q0.2-0.2 0.3-0.4c0.1-0.1 0.1-0.2 0.2-0.3 0-0.1 0-0.2 0.1-0.4 0.1-0.6-0.1-1.5-0.6-2.4-0.6-1-1.7-1.9-2.8-2.2-1.3-0.4-2.7-0.2-3.9 0.3-1.2 0.5-2.2 1.2-2.8 1.9-0.6 0.7-1 1.5-1.3 2q-0.1 0.4-0.2 0.6-0.1 0.2-0.1 0.2 0 0 0.2-0.2 0.1-0.2 0.4-0.5c0.3-0.4 0.9-1 1.6-1.5 0.7-0.4 1.6-0.9 2.7-1.2 1-0.3 2.1-0.3 2.9 0 0.8 0.2 1.6 0.7 2.1 1.4 0.6 0.6 0.8 1.2 0.9 1.6 0.1 0.1 0.1 0.2 0.1 0.3 0 0.1 0 0.2 0 0.2q0 0.3 0 0.5c-0.1 0.2-0.2 0.4-0.1 0.4z"/>
				</g>
				<g id="&lt;Group&gt;">
					<path id="&lt;Path&gt;" class="s0" d="m44.8 282.5c0.8 0 1.7-0.3 2.6-2.1 0.9-1.7 1.7-4.8 3.6-10.2 0.9-2.7 2.1-5.7 3.6-8.6 1.4-2.9 3.1-5.8 4.8-8.2 1.8-2.5 3.6-4.5 4.9-5.9 1.4-1.4 2.2-2.2 2.2-2.2q0 0-0.7 0.3c-0.5 0.2-1.3 0.5-2.2 1-1.7 0.9-4.2 2.2-6.8 4.2-2.5 2-5.2 4.6-7.4 7.5-2.3 3-4.1 6.3-5.3 9.4-0.5 1.6-1 3-1.2 4.3-0.3 1.3-0.4 2.4-0.5 3.5-0.1 1-0.1 1.8 0 2.6 0 0.7 0.1 1.3 0.3 1.9 0.5 2 1.4 2.4 2.1 2.5z"/>
				</g>
				<g id="&lt;Group&gt;">
					<path id="&lt;Path&gt;" class="s0" d="m59.8 308.3c0.7-0.3 1.3-1.1 1.1-3-0.1-1.9-1.1-4.9-2.5-10.3-0.7-2.7-1.5-5.7-2-8.9-0.6-3.1-0.9-6.3-1-9.2-0.2-3 0-5.6 0.1-7.5 0.2-1.8 0.4-3 0.4-3q-0.1 0-0.4 0.7c-0.3 0.5-0.6 1.2-1.1 2-0.8 1.8-1.8 4.3-2.6 7.3-0.9 3-1.4 6.6-1.5 10.2-0.2 3.5 0.2 7.1 1 10.2 1.7 6.2 3.9 9.3 5.4 10.7 1.5 1.3 2.5 1.2 3.1 0.8z"/>
				</g>
				<g id="&lt;Group&gt;">
					<path id="&lt;Path&gt;" class="s0" d="m74.3 314.9c1.2-0.8 2.7-2.5-0.2-6.8-3-4.4-10.4-8.8-10.4-8.8 0 0 1.4 8.5 4.3 12.8 3 4.4 5.1 3.6 6.3 2.8z"/>
				</g>
				<g id="&lt;Group&gt;">
					<path id="&lt;Path&gt;" class="s0" d="m46.8 222.8c-0.1 0.3 0 0.8 0.7 1.3q0.2 0.3 0.6 0.5 0.4 0.2 1 0.5 1.1 0.4 3 0.6c2.5 0.3 6.2-0.1 10.5-2.5 2.2-1.3 4.4-3 6.5-5.5 1-1.2 2-2.7 2.9-4.3q1.2-2.4 2-5.3c1.1-3.8 1.5-8 1.3-12.1-0.2-4.2-0.9-8.3-2-12.3-2.1-7.9-5.6-15.4-9.3-21.6-1.9-3.1-3.9-5.8-5.8-8.2-0.9-1.2-1.8-2.3-2.7-3.2-0.9-1.1-1.7-1.9-2.5-2.7-0.7-0.9-1.5-1.5-2.1-2.2q-0.9-0.9-1.6-1.5c-0.9-0.8-1.4-1.2-1.4-1.2 0 0 0.4 0.5 1.1 1.4q0.6 0.7 1.4 1.8c0.5 0.7 1.1 1.5 1.7 2.4 0.7 0.9 1.4 1.9 2.1 3 0.7 1.1 1.4 2.3 2.1 3.5 1.5 2.6 3 5.5 4.5 8.6 2.8 6.3 5.2 13.7 6.5 21.3 0.7 3.7 1 7.5 1.1 11.1-0.1 3.5-0.5 6.9-1.3 9.9q-0.7 2.2-1.6 4c-0.6 1.2-1.2 2.2-1.9 3.2-1.5 1.8-3 3.3-4.5 4.3-3 2.2-5.5 2.9-7.3 3.4-0.9 0.2-1.7 0.4-2.3 0.5q-0.5 0.1-0.8 0.2-0.4 0.1-0.7 0.2c-0.8 0.2-1.1 0.5-1.2 0.9z"/>
				</g>
				<path id="&lt;Path&gt;" class="s1" d="m37.5 39.4c7.6 7.6 18.4 3 18.4 3-3.2 8.7 1 16.4 1 16.4 0 0-7.7-4.3-16.4-1 0 0 4.6-10.8-3-18.4z"/>
			</g>
		</g>
		<g id="&lt;Group&gt;">
			<g id="&lt;Group&gt;">
				<path id="&lt;Path&gt;" class="s0" d="m1090.3 71.2c1-0.3 2 1.5 4 3.7 1 1.1 2.4 2.2 4 3.2 1.6 1 3.5 1.7 5.5 2 2.1 0.3 4.3 0.1 6.4-0.6q1.6-0.5 3-1.3 1.4-0.9 2.6-2c3-2.9 4.1-7 4.1-9.9 0-6.1-3.1-12.3-8.3-15.7-5.2-3.6-11.9-4.8-18.4-4q-3.1 0.4-6.1 1.4-3 0.9-5.8 2.3c-3.8 1.9-7.3 4.2-10.7 6.8-6.8 5.2-13 11.4-20 17.2-3.5 2.8-7.2 5.6-11.4 8-4.1 2.3-8.6 4.2-13.4 5.3-4.8 1.1-9.9 1.5-15 0.5-2.6-0.4-5.2-1.3-7.6-2.6q-1.8-0.9-3.4-2.2-1.7-1.3-3.1-3c-1.4-1.6-2.5-3.5-3.1-5.6l-0.2-0.8q-0.1-0.3-0.2-0.8c0-0.6-0.2-1.1-0.1-1.7-0.1-1.1 0-2.2 0.2-3.2 0.9-4 3.4-6.8 5.9-8.4q0.5-0.2 0.9-0.4 0.5-0.2 0.9-0.4 0.5-0.1 0.9-0.2 0.5-0.1 0.9-0.2c0.5 0 1 0 1.5 0q0.3 0.1 0.6 0.1 0.3 0.1 0.6 0.2c0.3 0.2 0.6 0.3 0.8 0.4q0.4 0.3 0.6 0.5 0.4 0.5 0.3 1c-0.1 0.5-0.7 1-1.4 1.4-0.8 0.5-1.6 1.1-2.5 2.2-0.3 0.5-0.7 1.1-1 1.6-0.3 0.7-0.6 1.3-0.7 2.1-0.1 0.7-0.2 1.4-0.2 2.1 0.1 0.3 0.1 0.6 0.3 0.9v0.2c0 0.1 0.1 0.2 0.1 0.3 0.1 0.1 0.2 0.3 0.3 0.5 0.6 1.4 1.9 2.7 3.5 3.8 1.6 1.2 3.6 2 5.5 2.5 0.8 0.2 1.8 0.4 2.7 0.5q1.4 0.2 2.8 0.2 2.9 0.1 5.8-0.3c3.9-0.6 7.8-1.9 11.5-3.5 7.4-3.3 14.4-8.5 21.4-13.7 7-5.3 14.3-10.8 22.8-14.5 4.2-1.9 8.7-3.3 13.3-3.9 4.7-0.6 9.5-0.4 14.2 0.8 1.9 0.5 4.6 1.4 7.5 3.1q0.5 0.3 1.1 0.7 0.5 0.4 1.1 0.7c0.7 0.6 1.5 1.2 2.1 1.9 0.8 0.7 1.4 1.4 2.1 2.2 0.6 0.9 1.2 1.7 1.7 2.6 1.1 1.9 2.1 3.9 2.7 6.1 0.5 2.3 0.8 4.7 0.7 7.1-0.2 2.4-0.8 4.9-2 7.2q-0.4 0.8-0.9 1.6c-0.4 0.6-0.7 1.1-1.1 1.6-0.8 1-1.7 1.8-2.7 2.6-3.8 3.2-8.7 4.6-13.2 4.3-2.2-0.2-4.3-0.8-6.1-1.6-1.8-0.9-3.4-2-4.6-3.1-1.2-1.2-2.1-2.4-2.8-3.5-0.7-1.2-1.1-2.3-1.3-3.2-0.5-1.8-0.2-2.9 0.4-3.1z"/>
			</g>
			<g id="&lt;Group&gt;">
				<path id="&lt;Path&gt;" class="s0" d="m996.3 84.5q0.4 0.5-0.2 1.3c-0.4 0.6-1.1 1.3-2.1 2-2 1.3-5.2 2.5-8.8 2.7-1.8 0.1-3.6 0-5.5-0.2-1.8-0.3-3.6-0.7-5.2-1.2-1.7-0.5-3.2-1.2-4.6-1.8-1.3-0.7-2.5-1.3-3.5-1.9-8.1-4.7-14.4-11-22.1-15.6-4.8-2.9-10-5.2-15.4-5.7-1.3-0.2-2.7-0.2-4-0.1q-1.9 0.1-3.8 0.6-1.9 0.5-3.6 1.3-1.7 0.9-3.1 2.1c-1.9 1.5-3.2 3.5-3.9 5.6q-0.4 1.4-0.2 3c0.1 1.1 0.4 2.1 0.8 3.1 0.8 2 2.4 3.6 4 4.3 0.8 0.4 1.6 0.5 2.4 0.4 0.8 0 1.7-0.2 2.4-0.8 1.2-0.7 2.2-1.8 2.9-3.1 0.7-1.2 1.2-2.5 1.4-3.6 0.5-2.2 0.4-3.7 1.2-4.2 0.3-0.3 0.8-0.2 1.5 0.3 0.7 0.5 1.4 1.5 1.9 3.1 0.3 1.4 0.5 3.1 0.1 5-0.3 1.8-1.1 3.7-2.4 5.5-1.3 1.8-3.1 3.4-5.5 4.3-0.6 0.2-1.2 0.4-1.8 0.5-0.6 0.1-1.3 0.2-1.9 0.2-0.6 0-1.2 0-1.8-0.1-0.6-0.1-1.2-0.2-1.8-0.4-2-0.5-3.8-1.7-5.2-3-1.4-1.3-2.5-2.9-3.3-4.5q-1.2-2.5-1.6-5.3c-0.2-1.8 0-3.7 0.5-5.6 0.1-0.4 0.2-0.9 0.4-1.3l0.5-1.2c0.5-0.8 0.9-1.6 1.4-2.3 1.1-1.4 2.3-2.7 3.6-3.7 2.7-2.1 5.8-3.4 8.9-4.1q2.4-0.5 4.8-0.5c1.6 0 3.1 0.1 4.7 0.4 3 0.5 6 1.4 8.7 2.7 5.6 2.4 10.5 5.9 15.3 9.5 2.1 1.5 5.6 4.1 9.9 6.8 4.2 2.7 9.3 5.4 14.4 6.5 2.6 0.6 5.1 0.9 7.4 0.9 2.3 0 4.4-0.3 6.1-0.7 1.7-0.4 3.1-0.9 4.1-1.2 1-0.3 1.8-0.3 2 0z"/>
			</g>
			<g id="&lt;Group&gt;">
				<path id="&lt;Path&gt;" class="s0" d="m1098.1 37.3c0.1 0.4 0.2 0.8 0.7 1.2 0.4 0.3 1.1 0.7 2.1 1 1.1 0.3 2.6 0.7 4.6 1.2 2 0.5 4.5 1.2 7.5 2.4 3.1 1.4 6.4 3.2 9.3 5.6 2.9 2.4 5.4 5.5 7.3 8.6 1.8 3 2.9 6.1 3.5 8.3 0.3 1.1 0.5 2 0.6 2.7q0.2 0.9 0.2 0.9 0 0 0.2-1 0.1-0.9 0.1-2.8c0.1-2.3-0.1-5.8-1.3-9.6-1.2-3.8-3.2-7.9-6.3-11.4-3-3.5-6.9-6.3-10.7-7.9-3.8-1.7-7-2.2-9.5-2.3-2.5-0.1-4.3 0.2-5.6 0.6-1.2 0.4-1.9 0.9-2.3 1.3-0.3 0.4-0.4 0.9-0.4 1.2z"/>
			</g>
			<g id="&lt;Group&gt;">
				<path id="&lt;Path&gt;" class="s0" d="m1124.2 29.2c-0.4 0.6-0.6 1.6 0 2.8 0.6 1.3 2 2.9 4.5 5.8 1.2 1.4 2.6 3 3.9 4.8 1.3 1.8 2.5 3.7 3.4 5.5 1 1.9 1.6 3.6 2.1 4.9 0.4 1.3 0.6 2.1 0.6 2.1q0 0 0.2-0.6c0-0.3 0.2-0.9 0.3-1.6 0.2-1.4 0.5-3.4 0.4-5.7-0.2-2.3-0.6-4.9-1.6-7.4-0.9-2.5-2.2-4.9-3.7-6.7-3.2-3.7-5.9-4.8-7.4-5-1.6-0.2-2.3 0.5-2.7 1.1z"/>
			</g>
			<g id="&lt;Group&gt;">
				<path id="&lt;Path&gt;" class="s0" d="m965.1 55.6c-0.4-0.1-0.8-0.1-1.3 0.2-0.4 0.2-1 0.7-1.6 1.8-0.5 1-1 2.6-1.2 4.8-0.2 2.2-0.1 5.2 1 8.8 1.1 3.5 3.3 7.2 6.4 10.1 3 2.9 6.6 4.8 10 5.9 3.4 1 6.4 1.2 8.5 1.1q1.6-0.1 2.5-0.2 0.9-0.2 0.9-0.2 0 0-0.9-0.1c-0.6-0.1-1.4-0.3-2.3-0.6-2-0.6-4.6-1.6-7.2-3.3-2.6-1.7-5.1-4-7-6.7-1.9-2.6-3.1-5.5-4-8.2-0.8-2.7-1.1-4.9-1.4-6.7-0.2-1.7-0.4-3-0.6-3.9-0.2-1-0.5-1.6-0.8-2.1-0.3-0.4-0.7-0.6-1-0.7z"/>
			</g>
			<g id="&lt;Group&gt;">
				<path id="&lt;Path&gt;" class="s0" d="m1023.2 97.2q0 0 0.6 0.1 0.5 0.2 1.5 0.4c1.4 0.3 3.5 0.4 6.1-0.2 2.6-0.5 5.6-1.7 8.4-3.8 2.8-2.1 5.4-4.9 7.5-8.1 2.1-3.2 3.6-6.4 4.9-9.3 1.1-2.8 2.2-5.4 3.2-7.6 0.9-2.1 1.7-3.8 2.3-5q0.5-0.9 0.8-1.4 0.2-0.5 0.2-0.5 0 0-0.4 0.3-0.5 0.2-1.4 0.8c-1.2 0.8-2.8 2-4.5 3.8-1.8 1.7-3.7 4-5.6 6.6-1.8 2.6-3.7 5.4-5.5 8.3-1.9 2.8-3.7 5.4-5.6 7.5-1.8 2.1-3.8 3.8-5.6 5.1-1.9 1.2-3.6 1.9-4.9 2.4q-0.9 0.3-1.4 0.4-0.6 0.2-0.6 0.2z"/>
			</g>
			<g id="&lt;Group&gt;">
				<path id="&lt;Path&gt;" class="s0" d="m1053 85.8c0 0 0.5-0.3 1.2-0.7 0.7-0.5 1.7-1.2 2.9-2.2 2.3-2 5.1-5.1 7.1-9.2 1.9-4 2.5-8.2 2.6-11.2 0-1.5-0.1-2.8-0.2-3.7-0.1-0.8-0.2-1.3-0.2-1.3 0 0-0.3 0.4-0.9 1-0.5 0.7-1.3 1.6-2.2 2.8-1.7 2.4-3.9 5.5-5.7 9.3-1.8 3.8-2.9 7.5-3.6 10.4-0.3 1.4-0.6 2.6-0.8 3.4-0.1 0.9-0.2 1.4-0.2 1.4z"/>
			</g>
			<g id="&lt;Group&gt;">
				<path id="&lt;Path&gt;" class="s0" d="m990.8 94.3c0 0 0.7 0.3 2 0.9q0.5 0.2 1.1 0.4 0.6 0.2 1.4 0.4c0.9 0.3 2 0.7 3.3 0.9q0.9 0.2 2 0.3c0.7 0.2 1.4 0.2 2.1 0.3 1.6 0.2 3.2 0.2 4.9 0.1 3.4-0.1 7.2-0.7 10.9-1.9 3.8-1.2 7.2-3 10-4.9 1.4-1 2.7-2 3.8-3 0.5-0.5 1.1-1 1.6-1.5q0.7-0.8 1.4-1.5c0.8-0.9 1.5-1.8 2.1-2.6q0.5-0.6 0.9-1.2 0.3-0.5 0.6-1c0.8-1.2 1.1-1.9 1.1-1.9 0 0-0.7 0.4-1.9 1.1q-0.4 0.3-1 0.6-0.5 0.3-1.2 0.6c-0.8 0.5-1.8 1-2.9 1.5q-0.8 0.5-1.6 0.9c-0.6 0.3-1.2 0.5-1.9 0.8-1.2 0.6-2.6 1.2-4 1.8-2.8 1.1-5.9 2.3-9.2 3.4-3.4 1.1-6.6 2-9.5 2.8-1.5 0.3-2.9 0.7-4.3 0.9-0.7 0.2-1.3 0.3-2 0.4q-0.9 0.2-1.8 0.3c-1.2 0.3-2.3 0.4-3.3 0.5q-0.7 0.1-1.3 0.2-0.6 0.1-1.1 0.1c-1.4 0.2-2.2 0.3-2.2 0.3z"/>
			</g>
			<g id="&lt;Group&gt;">
				<path id="&lt;Path&gt;" class="s0" d="m1093.8 62.3q0 0-0.3 0.9-0.1 0.4-0.2 1.1 0 0.3-0.1 0.7 0 0.4 0 0.8c0 2.3 0.8 5.5 3.3 8.4 1.3 1.4 2.9 2.8 5.2 3.6 1.1 0.4 2.5 0.7 3.7 0.8 1.3 0.1 2.6 0 3.8-0.3 2.6-0.6 4.9-1.9 6.9-3.7 1.9-1.7 3.5-4.1 4.3-7 0.8-2.7 0.8-5.5 0.2-7.9-0.5-2.5-1.5-4.6-2.8-6.5-1.3-1.8-2.9-3.3-4.4-4.4-1.6-1.1-3.1-1.8-4.6-2.4-2.9-1-5.3-1.2-6.9-1.3q-1.3 0-1.9 0.1-0.7 0-0.7 0 0 0 0.7 0.1 0.6 0 1.8 0.2c1.6 0.3 3.9 0.8 6.5 2.1 1.3 0.6 2.7 1.5 4.1 2.6 1.3 1.1 2.6 2.5 3.7 4.2 1 1.7 1.8 3.6 2.2 5.7 0.4 2.2 0.4 4.5-0.2 6.8-0.7 2.4-2 4.5-3.7 6-1.6 1.6-3.5 2.8-5.7 3.4-2.1 0.6-4.4 0.6-6.4-0.1-2.1-0.6-3.7-1.7-4.9-2.9-2.5-2.4-3.6-5.3-3.8-7.5q0-0.4-0.1-0.8 0.1-0.4 0.1-0.7 0-0.7 0.1-1.1 0.1-0.9 0.1-0.9z"/>
				<path id="&lt;Path&gt;" class="s0" d="m1098.8 66.6q0 0 0.1 0.4 0 0.4 0.3 1.2c0.3 1 1.1 2.5 2.8 3.7 0.9 0.6 2 1.1 3.2 1.3 1.3 0.2 2.6 0.1 4-0.4 2.7-1 5.2-3.4 6.2-6.6q0.3-1.2 0.4-2.5 0-1.2-0.2-2.3c-0.3-1.6-0.8-3-1.5-4.2-1.5-2.4-3.5-4-5.4-4.9-1.8-0.9-3.4-1.3-4.5-1.5-1.2-0.1-1.8-0.1-1.8-0.1 0 0 0.6 0.1 1.7 0.5 1 0.4 2.5 1 4 2.1 1.5 1.1 3.1 2.8 4.1 4.9 1 2.2 1.5 4.8 0.8 7.3-0.7 2.4-2.6 4.4-4.6 5.3-1 0.5-2.1 0.7-3.1 0.7-0.9 0-1.8-0.2-2.6-0.6-1.6-0.8-2.6-2-3.2-2.9q-0.4-0.6-0.5-1-0.2-0.4-0.2-0.4z"/>
				<path id="&lt;Path&gt;" class="s0" d="m1104.5 67.3c0-0.1 0.1 0.1 0.3 0.3q0.2 0.2 0.4 0.3c0.1 0.1 0.2 0.1 0.3 0.2 0.1 0 0.2 0 0.4 0.1 0.6 0.1 1.5-0.1 2.4-0.6 1-0.6 1.9-1.7 2.2-2.8 0.4-1.3 0.2-2.7-0.3-3.9-0.4-1.2-1.2-2.2-1.9-2.8-0.7-0.6-1.5-1-2-1.3q-0.4-0.1-0.6-0.2-0.2-0.1-0.2-0.1 0 0 0.2 0.2 0.2 0.1 0.5 0.4c0.4 0.3 1 0.9 1.5 1.6 0.4 0.7 1 1.6 1.2 2.7 0.3 1 0.3 2.1 0 2.9-0.2 0.8-0.7 1.6-1.4 2.1-0.6 0.6-1.2 0.8-1.6 0.9-0.1 0.1-0.2 0.1-0.3 0.1-0.1 0-0.1 0-0.2 0q-0.2 0-0.5 0c-0.2-0.1-0.4-0.2-0.4-0.1z"/>
			</g>
			<g id="&lt;Group&gt;">
				<path id="&lt;Path&gt;" class="s0" d="m919.3 44.8c0 0.8 0.4 1.7 2.1 2.6 1.7 0.9 4.8 1.7 10.2 3.6 2.7 0.9 5.7 2.1 8.6 3.6 2.9 1.4 5.8 3.1 8.3 4.8 2.4 1.8 4.4 3.6 5.8 4.9 1.4 1.4 2.2 2.2 2.2 2.2q0 0-0.3-0.7c-0.2-0.5-0.5-1.3-1-2.2-0.9-1.7-2.2-4.2-4.2-6.8-2-2.5-4.6-5.2-7.5-7.4-3-2.3-6.3-4.1-9.4-5.3-1.6-0.5-3-1-4.3-1.2-1.3-0.3-2.4-0.4-3.4-0.5-1-0.1-1.9-0.1-2.7 0-0.7 0-1.3 0.1-1.9 0.3-2 0.5-2.4 1.4-2.5 2.1z"/>
			</g>
			<g id="&lt;Group&gt;">
				<path id="&lt;Path&gt;" class="s0" d="m893.5 59.8c0.3 0.7 1.1 1.3 3 1.1 1.9-0.1 4.9-1.1 10.3-2.5 2.7-0.7 5.7-1.5 8.9-2 3.1-0.6 6.3-0.9 9.2-1 3-0.2 5.6 0 7.5 0.1 1.8 0.2 3 0.4 3 0.4q0-0.1-0.7-0.4c-0.5-0.3-1.2-0.6-2-1.1-1.8-0.8-4.3-1.8-7.3-2.6-3-0.9-6.6-1.4-10.1-1.5-3.6-0.2-7.2 0.2-10.3 1-6.2 1.7-9.2 3.9-10.6 5.4-1.4 1.5-1.3 2.5-0.9 3.1z"/>
			</g>
			<g id="&lt;Group&gt;">
				<path id="&lt;Path&gt;" class="s0" d="m979 46.8c-0.3-0.1-0.7 0-1.3 0.7q-0.3 0.2-0.5 0.6-0.2 0.4-0.5 1-0.4 1.1-0.6 3c-0.3 2.5 0.1 6.2 2.6 10.5 1.2 2.2 2.9 4.4 5.4 6.5 1.3 1 2.7 2 4.3 2.9q2.4 1.2 5.3 2c3.8 1.1 8 1.5 12.1 1.3 4.2-0.2 8.3-0.9 12.3-2 7.9-2.1 15.4-5.6 21.6-9.3 3.1-1.9 5.8-3.9 8.2-5.8 1.2-0.9 2.3-1.8 3.3-2.7 1-0.9 1.8-1.7 2.6-2.5 0.9-0.7 1.5-1.5 2.2-2.1q0.9-0.9 1.5-1.6c0.8-0.9 1.2-1.4 1.2-1.4 0 0-0.5 0.4-1.4 1.1q-0.7 0.6-1.8 1.4c-0.7 0.5-1.5 1.1-2.4 1.7-0.9 0.7-1.9 1.4-3 2.1-1 0.7-2.2 1.4-3.5 2.1-2.6 1.5-5.4 3-8.6 4.5-6.3 2.8-13.7 5.2-21.3 6.5-3.7 0.7-7.5 1-11.1 1.1-3.5-0.1-6.9-0.5-9.9-1.3q-2.2-0.7-4-1.6c-1.2-0.6-2.2-1.2-3.2-1.9-1.8-1.5-3.3-3-4.3-4.5-2.2-3-2.9-5.5-3.4-7.3-0.2-0.9-0.4-1.7-0.5-2.3q-0.1-0.5-0.2-0.8-0.1-0.4-0.1-0.7c-0.3-0.8-0.6-1.1-1-1.2z"/>
			</g>
			<g id="&lt;Group&gt;">
				<g id="&lt;Group&gt;">
					<path id="&lt;Path&gt;" class="s0" d="m1128.8 111.5c0.3-1-1.5-2-3.7-4-1.1-1-2.2-2.4-3.2-4-1-1.6-1.7-3.5-2-5.5-0.3-2.1-0.1-4.3 0.6-6.4q0.5-1.6 1.3-3 0.9-1.4 2-2.6c2.9-3 7-4.1 9.9-4.1 6.1 0 12.3 3.1 15.7 8.3 3.6 5.2 4.8 11.9 4 18.5q-0.4 3-1.4 6-0.9 3-2.3 5.8c-1.9 3.8-4.2 7.3-6.8 10.7-5.2 6.8-11.4 13-17.2 20-2.8 3.5-5.6 7.2-8 11.4-2.3 4.1-4.2 8.6-5.3 13.4-1.1 4.8-1.5 9.9-0.5 15 0.4 2.6 1.3 5.2 2.6 7.6q0.9 1.8 2.2 3.5 1.3 1.6 3 3c1.6 1.4 3.5 2.5 5.6 3.1l0.8 0.2q0.3 0.1 0.8 0.2c0.6 0 1.1 0.2 1.7 0.2 1.1 0 2.2-0.1 3.2-0.3 4-0.9 6.8-3.4 8.4-5.9q0.2-0.5 0.4-0.9 0.2-0.5 0.4-0.9 0.1-0.5 0.2-0.9 0.1-0.5 0.2-0.9c0-0.5 0-1 0-1.5q-0.1-0.3-0.1-0.6-0.1-0.3-0.2-0.6c-0.2-0.3-0.3-0.6-0.4-0.8q-0.3-0.4-0.5-0.6-0.5-0.4-1-0.3c-0.5 0.1-1 0.7-1.4 1.4-0.5 0.8-1.1 1.6-2.2 2.5-0.5 0.3-1.1 0.7-1.6 1-0.7 0.3-1.3 0.6-2.1 0.7-0.7 0.2-1.4 0.2-2.1 0.2-0.3-0.1-0.6-0.1-0.9-0.2l-0.2-0.1c-0.1 0-0.2-0.1-0.3-0.1-0.1-0.1-0.3-0.1-0.5-0.3-1.4-0.6-2.7-1.9-3.8-3.5-1.2-1.6-2-3.6-2.5-5.5-0.2-0.8-0.4-1.8-0.5-2.7q-0.2-1.4-0.2-2.8-0.1-2.9 0.3-5.8c0.6-3.9 1.9-7.8 3.5-11.5 3.3-7.4 8.5-14.4 13.7-21.4 5.3-7 10.8-14.3 14.5-22.8 1.9-4.2 3.3-8.7 3.9-13.3 0.6-4.7 0.4-9.5-0.8-14.2-0.5-1.9-1.4-4.6-3.1-7.5q-0.3-0.5-0.7-1.1-0.4-0.5-0.7-1.1c-0.6-0.7-1.2-1.5-1.9-2.1-0.7-0.8-1.4-1.4-2.2-2.1-0.9-0.6-1.7-1.2-2.6-1.7-1.9-1.1-3.9-2.1-6.1-2.6-2.3-0.6-4.7-0.9-7.1-0.8-2.4 0.2-4.9 0.8-7.2 2q-0.8 0.4-1.6 0.9c-0.6 0.4-1.1 0.7-1.6 1.1-1 0.8-1.8 1.7-2.6 2.7-3.2 3.8-4.6 8.7-4.3 13.2 0.2 2.2 0.8 4.3 1.6 6.1 0.9 1.8 2 3.4 3.1 4.6 1.2 1.2 2.4 2.1 3.5 2.8 1.2 0.7 2.3 1.1 3.2 1.3 1.8 0.5 2.9 0.2 3.1-0.4z"/>
				</g>
				<g id="&lt;Group&gt;">
					<path id="&lt;Path&gt;" class="s0" d="m1115.5 205.5q-0.5-0.4-1.3 0.2c-0.6 0.4-1.3 1.2-2 2.1-1.3 2-2.5 5.2-2.7 8.8-0.1 1.8 0 3.6 0.2 5.5 0.3 1.8 0.7 3.6 1.2 5.2 0.5 1.7 1.2 3.2 1.8 4.6 0.7 1.4 1.3 2.5 1.9 3.5 4.7 8.1 11 14.4 15.6 22.1 2.9 4.8 5.2 10 5.7 15.4 0.2 1.3 0.2 2.7 0.1 4q-0.1 1.9-0.6 3.8-0.5 1.9-1.3 3.6-0.9 1.7-2.1 3.1c-1.5 1.9-3.5 3.2-5.6 3.9q-1.4 0.4-3 0.2c-1.1-0.1-2.1-0.4-3.1-0.8-2-0.8-3.6-2.4-4.3-4-0.4-0.8-0.5-1.6-0.4-2.4 0-0.8 0.2-1.6 0.8-2.4 0.7-1.2 1.8-2.2 3.1-2.9 1.2-0.7 2.5-1.1 3.6-1.4 2.2-0.5 3.7-0.4 4.2-1.2 0.3-0.3 0.2-0.8-0.3-1.5-0.5-0.7-1.5-1.4-3.1-1.9-1.4-0.3-3.1-0.5-5-0.1-1.8 0.3-3.7 1.1-5.5 2.4-1.8 1.3-3.4 3.1-4.3 5.5-0.2 0.6-0.4 1.2-0.5 1.8-0.1 0.6-0.2 1.3-0.2 1.9 0 0.6 0 1.2 0.1 1.8 0.1 0.6 0.2 1.2 0.4 1.8 0.5 2 1.7 3.8 3 5.2 1.3 1.4 2.9 2.5 4.5 3.3q2.5 1.2 5.3 1.6c1.8 0.2 3.7 0 5.6-0.5 0.4-0.1 0.9-0.2 1.3-0.4l1.2-0.5c0.8-0.5 1.6-0.9 2.3-1.4 1.4-1.1 2.7-2.3 3.7-3.6 2.1-2.7 3.4-5.8 4.1-8.9q0.5-2.4 0.5-4.8c0-1.6-0.1-3.1-0.4-4.7-0.5-3-1.4-6-2.7-8.7-2.4-5.6-5.9-10.5-9.5-15.3-1.5-2.1-4.1-5.6-6.8-9.9-2.7-4.2-5.4-9.3-6.5-14.4-0.6-2.5-0.9-5.1-0.9-7.4 0-2.3 0.3-4.4 0.7-6.1 0.4-1.7 0.9-3.1 1.2-4.1 0.3-1 0.3-1.8 0-2z"/>
				</g>
				<g id="&lt;Group&gt;">
					<path id="&lt;Path&gt;" class="s0" d="m1162.7 103.7c-0.4-0.1-0.8-0.2-1.2-0.7-0.3-0.4-0.7-1.1-1-2.1-0.3-1.1-0.7-2.6-1.2-4.6-0.5-2-1.2-4.5-2.4-7.5-1.4-3.1-3.2-6.4-5.6-9.3-2.4-2.9-5.5-5.4-8.6-7.2-3-1.9-6.1-3-8.3-3.6-1.1-0.3-2-0.5-2.7-0.6q-0.9-0.2-0.9-0.2 0 0 1-0.1 0.9-0.2 2.8-0.2c2.3-0.1 5.8 0.2 9.6 1.3 3.8 1.2 7.9 3.2 11.4 6.3 3.5 3 6.3 6.9 7.9 10.7 1.7 3.8 2.2 7 2.3 9.5 0.1 2.5-0.2 4.3-0.6 5.6-0.4 1.2-0.9 1.9-1.3 2.3-0.4 0.3-0.9 0.4-1.2 0.4z"/>
				</g>
				<g id="&lt;Group&gt;">
					<path id="&lt;Path&gt;" class="s0" d="m1170.8 77.6c-0.6 0.4-1.6 0.6-2.8 0-1.3-0.6-2.9-2-5.8-4.5-1.4-1.2-3-2.6-4.8-3.9-1.8-1.3-3.7-2.5-5.5-3.4-1.9-1-3.6-1.6-4.9-2.1-1.3-0.4-2.1-0.6-2.1-0.6q0 0 0.6-0.1c0.3-0.1 0.9-0.3 1.6-0.4 1.4-0.2 3.4-0.5 5.7-0.4 2.3 0.2 4.9 0.6 7.4 1.6 2.5 0.9 4.9 2.2 6.7 3.8 3.7 3.1 4.8 5.8 5 7.3 0.2 1.6-0.5 2.3-1.1 2.7z"/>
				</g>
				<g id="&lt;Group&gt;">
					<path id="&lt;Path&gt;" class="s0" d="m1144.4 236.7c0.1 0.4 0.1 0.8-0.2 1.3-0.2 0.5-0.7 1-1.8 1.6-1 0.5-2.6 1-4.8 1.2-2.2 0.2-5.2 0.1-8.8-1-3.5-1.1-7.2-3.3-10.1-6.3-2.9-3.1-4.8-6.7-5.9-10.1-1-3.4-1.2-6.4-1.1-8.5q0.1-1.6 0.2-2.5 0.2-0.9 0.2-0.9 0 0 0.1 0.9c0.1 0.6 0.3 1.4 0.6 2.3 0.6 2 1.6 4.6 3.3 7.2 1.7 2.6 4 5.1 6.7 7 2.6 1.9 5.5 3.1 8.2 4 2.7 0.8 4.9 1.1 6.7 1.4 1.7 0.2 3 0.4 3.9 0.6 1 0.2 1.6 0.5 2.1 0.8 0.4 0.3 0.6 0.7 0.7 1z"/>
				</g>
				<g id="&lt;Group&gt;">
					<path id="&lt;Path&gt;" class="s0" d="m1102.8 178.6q0 0-0.1-0.6-0.2-0.5-0.4-1.5c-0.3-1.4-0.4-3.5 0.2-6.1 0.5-2.6 1.7-5.6 3.8-8.4 2.1-2.8 4.9-5.4 8.1-7.5 3.2-2.1 6.4-3.6 9.3-4.9 2.8-1.1 5.4-2.2 7.6-3.1 2.1-1 3.8-1.8 5-2.4q0.9-0.5 1.4-0.8 0.5-0.2 0.5-0.2 0 0-0.3 0.4-0.2 0.5-0.8 1.4c-0.8 1.2-2 2.8-3.8 4.5-1.7 1.8-4 3.7-6.6 5.6-2.6 1.8-5.4 3.7-8.3 5.5-2.8 1.9-5.4 3.7-7.5 5.6-2.1 1.8-3.8 3.8-5.1 5.6-1.2 1.9-1.9 3.6-2.4 4.9q-0.3 0.9-0.4 1.4-0.2 0.6-0.2 0.6z"/>
				</g>
				<g id="&lt;Group&gt;">
					<path id="&lt;Path&gt;" class="s0" d="m1114.2 148.8c0 0 0.3-0.5 0.7-1.2 0.5-0.7 1.2-1.7 2.2-2.9 2-2.3 5.1-5.1 9.2-7.1 4-1.9 8.2-2.5 11.2-2.6 1.5 0 2.8 0.1 3.7 0.2 0.8 0.1 1.3 0.2 1.3 0.2 0 0-0.4 0.3-1 0.9-0.7 0.5-1.6 1.3-2.8 2.2-2.4 1.7-5.5 3.9-9.3 5.7-3.8 1.8-7.5 2.9-10.4 3.6-1.4 0.4-2.6 0.6-3.4 0.8-0.9 0.1-1.4 0.2-1.4 0.2z"/>
				</g>
				<g id="&lt;Group&gt;">
					<path id="&lt;Path&gt;" class="s0" d="m1105.7 211c0 0-0.3-0.7-0.9-2q-0.2-0.5-0.4-1.1-0.2-0.6-0.4-1.3c-0.3-1-0.7-2.1-0.9-3.4q-0.2-0.9-0.3-2c-0.2-0.7-0.2-1.4-0.3-2.1-0.2-1.6-0.2-3.2-0.1-4.9 0.1-3.4 0.7-7.2 1.9-10.9 1.2-3.8 3-7.1 4.9-10 1-1.4 2-2.7 3-3.8 0.5-0.5 1-1.1 1.5-1.6q0.8-0.7 1.5-1.4c0.9-0.8 1.8-1.5 2.6-2.1q0.6-0.5 1.2-0.9 0.5-0.3 1-0.6c1.2-0.7 1.9-1.1 1.9-1.1 0 0-0.4 0.7-1.1 1.9q-0.3 0.4-0.6 1-0.3 0.5-0.6 1.2c-0.5 0.8-1 1.8-1.5 2.9q-0.5 0.8-0.9 1.6c-0.3 0.6-0.5 1.2-0.8 1.9-0.6 1.2-1.2 2.6-1.8 4-1.1 2.8-2.3 5.9-3.4 9.2-1.1 3.4-2 6.6-2.8 9.5-0.3 1.5-0.7 2.9-0.9 4.3-0.2 0.7-0.3 1.3-0.4 2q-0.2 0.9-0.3 1.8c-0.3 1.2-0.4 2.3-0.5 3.3q-0.1 0.7-0.2 1.3-0.1 0.6-0.1 1.1c-0.2 1.4-0.3 2.2-0.3 2.2z"/>
				</g>
				<g id="&lt;Group&gt;">
					<path id="&lt;Path&gt;" class="s0" d="m1137.7 108q0 0-0.9 0.3-0.4 0.1-1.1 0.2-0.3 0-0.7 0.1-0.4 0-0.8 0c-2.3 0-5.5-0.8-8.4-3.3-1.4-1.3-2.8-2.9-3.6-5.2-0.4-1.1-0.7-2.5-0.8-3.7-0.1-1.3 0-2.6 0.3-3.8 0.6-2.6 1.9-4.9 3.7-6.9 1.7-1.9 4.1-3.5 7-4.3 2.7-0.8 5.5-0.8 7.9-0.2 2.5 0.5 4.6 1.5 6.5 2.8 1.8 1.3 3.3 2.9 4.4 4.4 1.1 1.6 1.8 3.1 2.4 4.6 1 2.9 1.2 5.3 1.3 6.9q0 1.3-0.1 1.9 0 0.7 0 0.7 0 0-0.1-0.7 0-0.6-0.2-1.8c-0.3-1.6-0.8-3.9-2.1-6.5-0.6-1.3-1.5-2.7-2.6-4.1-1.1-1.3-2.5-2.6-4.2-3.7-1.7-1-3.6-1.8-5.7-2.2-2.2-0.4-4.5-0.4-6.8 0.2-2.4 0.7-4.5 2-6 3.7-1.6 1.6-2.8 3.5-3.4 5.7-0.6 2.1-0.6 4.4 0.1 6.4 0.6 2.1 1.7 3.7 2.9 4.9 2.4 2.5 5.3 3.6 7.5 3.8q0.4 0 0.8 0.1 0.4 0 0.7-0.1 0.7 0 1.1 0 0.9-0.2 0.9-0.2z"/>
					<path id="&lt;Path&gt;" class="s0" d="m1133.4 103q0 0-0.4-0.1-0.4 0-1.2-0.3c-1-0.3-2.5-1.1-3.7-2.8-0.6-0.9-1.1-2-1.3-3.2-0.2-1.2-0.1-2.6 0.4-4 1-2.7 3.4-5.2 6.6-6.2q1.2-0.3 2.5-0.4 1.2 0 2.3 0.2c1.6 0.3 3 0.8 4.2 1.5 2.4 1.5 4 3.5 4.9 5.4 0.9 1.8 1.3 3.4 1.5 4.5 0.1 1.2 0.1 1.8 0.1 1.8 0 0-0.1-0.6-0.5-1.7-0.4-1-1-2.5-2.1-4-1.1-1.5-2.8-3.1-4.9-4.1-2.2-1-4.8-1.5-7.3-0.8-2.4 0.7-4.4 2.6-5.3 4.6-0.5 1-0.7 2.1-0.7 3.1 0 0.9 0.2 1.8 0.6 2.6 0.8 1.6 2 2.6 2.9 3.2q0.6 0.4 1 0.5 0.4 0.2 0.4 0.2z"/>
					<path id="&lt;Path&gt;" class="s0" d="m1132.7 97.3c0.1 0-0.1-0.1-0.3-0.3q-0.2-0.2-0.3-0.4c-0.1-0.1-0.1-0.2-0.2-0.3 0-0.1 0-0.2-0.1-0.4-0.1-0.6 0.1-1.5 0.6-2.4 0.6-1 1.7-1.9 2.8-2.2 1.3-0.4 2.7-0.2 3.9 0.3 1.2 0.5 2.2 1.2 2.8 1.9 0.6 0.7 1 1.5 1.3 2q0.1 0.4 0.2 0.6 0.1 0.2 0.1 0.2 0 0-0.2-0.2-0.1-0.2-0.4-0.5c-0.3-0.4-0.9-1-1.6-1.5-0.7-0.4-1.6-0.9-2.7-1.2-1-0.3-2.1-0.3-2.9 0-0.8 0.2-1.6 0.7-2.1 1.4-0.6 0.6-0.8 1.2-0.9 1.6-0.1 0.1-0.1 0.2-0.1 0.3 0 0.1 0 0.2 0 0.2q0 0.3 0 0.5c0.1 0.2 0.2 0.4 0.1 0.4z"/>
				</g>
				<g id="&lt;Group&gt;">
					<path id="&lt;Path&gt;" class="s0" d="m1155.2 282.5c-0.8 0-1.7-0.3-2.6-2.1-0.9-1.7-1.7-4.8-3.6-10.2-0.9-2.7-2.1-5.7-3.6-8.6-1.4-2.9-3.1-5.8-4.8-8.2-1.8-2.5-3.6-4.5-4.9-5.9-1.4-1.4-2.2-2.2-2.2-2.2q0 0 0.7 0.3c0.5 0.2 1.3 0.5 2.2 1 1.7 0.9 4.2 2.2 6.8 4.2 2.5 2 5.2 4.6 7.4 7.5 2.3 3 4.1 6.3 5.3 9.4 0.5 1.6 1 3 1.2 4.3 0.3 1.3 0.4 2.4 0.5 3.5 0.1 1 0.1 1.8 0 2.6 0 0.7-0.1 1.3-0.3 1.9-0.5 2-1.4 2.4-2.1 2.5z"/>
				</g>
				<g id="&lt;Group&gt;">
					<path id="&lt;Path&gt;" class="s0" d="m1140.2 308.3c-0.7-0.3-1.3-1.1-1.1-3 0.1-1.9 1.1-4.9 2.5-10.3 0.7-2.7 1.5-5.7 2-8.9 0.6-3.1 0.9-6.3 1-9.2 0.2-3 0-5.6-0.1-7.5-0.2-1.8-0.4-3-0.4-3q0.1 0 0.4 0.7c0.3 0.5 0.6 1.2 1.1 2 0.8 1.8 1.8 4.3 2.6 7.3 0.9 3 1.4 6.6 1.5 10.2 0.2 3.5-0.2 7.1-1 10.2-1.7 6.2-3.9 9.3-5.4 10.7-1.5 1.3-2.5 1.2-3.1 0.8z"/>
				</g>
				<g id="&lt;Group&gt;">
					<path id="&lt;Path&gt;" class="s0" d="m1125.7 314.9c-1.2-0.8-2.7-2.5 0.2-6.8 3-4.4 10.4-8.8 10.4-8.8 0 0-1.4 8.5-4.3 12.8-3 4.4-5.1 3.6-6.3 2.8z"/>
				</g>
				<g id="&lt;Group&gt;">
					<path id="&lt;Path&gt;" class="s0" d="m1153.2 222.8c0.1 0.3 0 0.8-0.7 1.3q-0.2 0.3-0.6 0.5-0.4 0.2-1 0.5-1.1 0.4-3 0.6c-2.5 0.3-6.2-0.1-10.5-2.5-2.2-1.3-4.4-3-6.5-5.5-1-1.2-2-2.7-2.9-4.3q-1.2-2.4-2-5.3c-1.1-3.8-1.5-8-1.3-12.1 0.2-4.2 0.9-8.3 2-12.3 2.1-7.9 5.6-15.4 9.3-21.6 1.9-3.1 3.9-5.8 5.8-8.2 0.9-1.2 1.8-2.3 2.7-3.2 0.9-1.1 1.7-1.9 2.5-2.7 0.7-0.9 1.5-1.5 2.1-2.2q0.9-0.9 1.6-1.5c0.9-0.8 1.4-1.2 1.4-1.2 0 0-0.4 0.5-1.1 1.4q-0.6 0.7-1.4 1.8c-0.5 0.7-1.1 1.5-1.7 2.4-0.7 0.9-1.4 1.9-2.1 3-0.7 1.1-1.4 2.3-2.1 3.5-1.5 2.6-3 5.5-4.5 8.6-2.8 6.3-5.2 13.7-6.5 21.3-0.7 3.7-1 7.5-1.1 11.1 0.1 3.5 0.5 6.9 1.3 9.9q0.7 2.2 1.6 4c0.6 1.2 1.2 2.2 1.9 3.2 1.5 1.8 3 3.3 4.5 4.3 3 2.2 5.5 2.9 7.3 3.4 0.9 0.2 1.7 0.4 2.3 0.5q0.5 0.1 0.8 0.2 0.4 0.1 0.7 0.2c0.8 0.2 1.1 0.5 1.2 0.9z"/>
				</g>
				<path id="&lt;Path&gt;" class="s1" d="m1162.5 39.4c-7.6 7.6-18.4 3-18.4 3 3.2 8.7-1 16.4-1 16.4 0 0 7.7-4.3 16.4-1 0 0-4.6-10.8 3-18.4z"/>
			</g>
		</g>
		<path id="&lt;Path&gt;" class="s0" d="m324.7 67.1h550.6v-2.7h-550.6z"/>
	</g>
</svg>